<svg xmlns="http://www.w3.org/2000/svg" width="42.031" height="21" viewBox="0 0 42.031 21">
  <defs>
    <style>
      .cls-1 {
        fill-rule: evenodd;
        opacity: 0.2;
      }
    </style>
  </defs>
  <path id="back.svg" class="cls-1" d="M430.93,485.556H393.479l7.231,7.6a1.117,1.117,0,0,1,0,1.525,0.993,0.993,0,0,1-1.452,0l-8.968-9.422a0.022,0.022,0,0,1,0,0,1.119,1.119,0,0,1,0-1.527l0,0,8.969-9.423a0.993,0.993,0,0,1,1.452,0,1.117,1.117,0,0,1,0,1.525l-7.226,7.592H430.93A1.07,1.07,0,1,1,430.93,485.556Z" transform="translate(-389.969 -474)"/>
</svg>
