<svg xmlns="http://www.w3.org/2000/svg" width="44" height="15" viewBox="0 0 44 15">
  <defs>
    <style>
      .cls-1 {
        fill: #fff;
        fill-rule: evenodd;
      }
    </style>
  </defs>
  <path id="cnext.svg" class="cls-1" d="M932.989,4383.61a1.549,1.549,0,0,1-.067.35c-0.013.03-.019,0.07-0.035,0.11a1.457,1.457,0,0,1-.379.53l-5.942,5.95a1.5,1.5,0,0,1-2.112-2.12l3.434-3.43H890.5a1.5,1.5,0,0,1,0-3h37.388l-3.465-3.47a1.493,1.493,0,0,1,2.112-2.11l5.814,5.82a1.326,1.326,0,0,1,.228.18A1.485,1.485,0,0,1,932.989,4383.61Z" transform="translate(-889 -4376)"/>
</svg>
