<svg xmlns="http://www.w3.org/2000/svg" width="57" height="57.03" viewBox="0 0 57 57.03">
  <defs>
    <style>
      .cls-1 {
        fill: #149df4;
        fill-rule: evenodd;
      }
    </style>
  </defs>
  <path id="com.svg" class="cls-1" d="M1138.85,3890.13l-4.84,4.84h0l-0.92.92h0l-26.43,26.46-4.3,4.3a1.4,1.4,0,0,1-.65.39h0l-17.03,4.98a1.322,1.322,0,0,1-1.63-1.62l4.97-17.06a0.516,0.516,0,0,0-.02.11,1.323,1.323,0,0,1,.38-0.74l36.51-36.55a3.977,3.977,0,0,1,5.62,0l8.34,8.35A4.014,4.014,0,0,1,1138.85,3890.13Zm-48.92,26.01-3.7,12.7,12.68-3.71h0l-8.46-8.48Zm3.75-5.02-2.53,2.53,10.25,10.26h0l2.53-2.53h0c-0.23-.26-0.54-0.59-0.93-0.98l-8.34-8.35C1094.28,3911.66,1093.94,3911.35,1093.68,3911.12Zm22.91-22.95-21.06,21.09c0.31,0.28.64,0.6,0.99,0.94l8.33,8.35c0.38,0.37.69,0.69,0.94,0.97l21.06-21.09c-0.31-.28-0.64-0.6-0.98-0.94l-8.34-8.35C1117.15,3888.77,1116.85,3888.45,1116.59,3888.17Zm4.39-4.39-2.53,2.53h0c0.23,0.26.54,0.59,0.93,0.98l8.34,8.35c0.39,0.39.72,0.7,0.98,0.93l2.54-2.53-10.26-10.26h0Zm16.02,2.58-8.34-8.35a1.358,1.358,0,0,0-1.92,0l-3.9,3.91-0.01.01,10.26,10.26h0l3.91-3.91A1.377,1.377,0,0,0,1137,3886.36Zm-25.59,19.1a1.311,1.311,0,0,1-.92.38,1.31,1.31,0,0,1-.93-2.24l8.29-8.29a1.292,1.292,0,0,1,1.85,0,1.31,1.31,0,0,1,0,1.85Zm-4.14,3.61a1.31,1.31,0,0,1,0-2.62h0A1.31,1.31,0,0,1,1107.27,3909.07Z" transform="translate(-1083 -3875.03)"/>
</svg>
