<svg xmlns="http://www.w3.org/2000/svg" width="44" height="15" viewBox="0 0 44 15">
  <defs>
    <style>
      .cls-1 {
        fill-rule: evenodd;
        opacity: 0.1;
      }
    </style>
  </defs>
  <path id="convert.svg" class="cls-1" d="M945.7,501.614c0.009,0.012.016,0.024,0.024,0.036a1.441,1.441,0,0,1,.216.468,1.523,1.523,0,0,1,.033.166,1.49,1.49,0,0,1,.012.327,1.473,1.473,0,0,1-.068.346,1.019,1.019,0,0,1-.034.111,1.5,1.5,0,0,1-.379.536l-5.942,5.942a1.493,1.493,0,0,1-2.112-2.112L940.887,504H903.5a1.5,1.5,0,0,1,0-3h37.388l-3.465-3.465a1.493,1.493,0,0,1,2.112-2.112l5.812,5.812a1.455,1.455,0,0,1,.23.188A1.32,1.32,0,0,1,945.7,501.614Z" transform="translate(-902 -495)"/>
</svg>
