<svg xmlns="http://www.w3.org/2000/svg" width="43.969" height="15" viewBox="0 0 43.969 15">
  <defs>
    <style>
      .cls-1 {
        fill: #fff;
        fill-rule: evenodd;
      }
    </style>
  </defs>
  <path id="cprev.svg" class="cls-1" d="M867.5,4385H830.14l3.431,3.43a1.5,1.5,0,0,1-2.111,2.12l-5.939-5.95a1.554,1.554,0,0,1-.377-0.53c-0.016-.04-0.022-0.08-0.035-0.11a1.548,1.548,0,0,1-.066-0.35,1.481,1.481,0,0,1,.411-1.19,1.319,1.319,0,0,1,.227-0.18l5.81-5.82a1.492,1.492,0,0,1,2.111,2.11l-3.463,3.47H867.5A1.5,1.5,0,0,1,867.5,4385Z" transform="translate(-825.031 -4376)"/>
</svg>
