<svg xmlns="http://www.w3.org/2000/svg" width="13" height="16" viewBox="0 0 13 16">
  <defs>
    <style>
      .cls-1 {
        fill: #fff;
        fill-rule: evenodd;
      }
    </style>
  </defs>
  <path id="file.svg" class="cls-1" d="M668.8,525.749a2.414,2.414,0,0,0-.488-0.791l-3.167-3.25a2.339,2.339,0,0,0-.772-0.5,2.291,2.291,0,0,0-.893-0.209h-6.5a0.931,0.931,0,0,0-.69.292A0.975,0.975,0,0,0,656,522v14a0.975,0.975,0,0,0,.284.708,0.931,0.931,0,0,0,.69.292h11.047a0.928,0.928,0,0,0,.69-0.292A0.977,0.977,0,0,0,669,536v-9.334a2.464,2.464,0,0,0-.2-0.917h0Zm-5-3.333a1.115,1.115,0,0,1,.416.229l3.178,3.261a1.147,1.147,0,0,1,.223.427H663.8v-3.917Zm3.9,13.25H657.3V522.333h5.2v4.333a0.973,0.973,0,0,0,.284.708,0.925,0.925,0,0,0,.691.292H667.7v8Zm0,0" transform="translate(-656 -521)"/>
</svg>
