<svg xmlns="http://www.w3.org/2000/svg" width="14" height="7" viewBox="0 0 14 7">
  <defs>
    <style>
      .cls-1 {
        fill-rule: evenodd;
        opacity: 0.4;
      }
    </style>
  </defs>
  <path id="formselect.svg" class="cls-1" d="M1128.63,436.183l6.5-6.047a0.534,0.534,0,0,1,.72,0,0.459,0.459,0,0,1,.01.672l-6.51,6.048a0.535,0.535,0,0,1-.72,0A0.452,0.452,0,0,1,1128.63,436.183Zm0.65-.03-6.41-5.989a0.54,0.54,0,0,0-.72,0,0.446,0.446,0,0,0,0,.667l6.41,5.989a0.54,0.54,0,0,0,.72,0A0.462,0.462,0,0,0,1129.28,436.153Z" transform="translate(-1122.03 -430)"/>
</svg>
