<svg xmlns="http://www.w3.org/2000/svg" width="38" height="34" viewBox="0 0 38 34">
  <defs>
    <style>
      .cls-1 {
        fill: #f1135c;
        fill-rule: evenodd;
      }
    </style>
  </defs>
  <path id="p1.svg" class="cls-1" d="M438.841,2743.03l-18.374,18.7a2.6,2.6,0,0,1-3.712,0l-8.932-9.09a4.086,4.086,0,0,1,0-5.7,3.92,3.92,0,0,1,5.6,0l5.186,5.28,14.628-14.89a3.92,3.92,0,0,1,5.6,0A4.086,4.086,0,0,1,438.841,2743.03Zm-1.436-4.24a1.919,1.919,0,0,0-2.73,0L419.9,2753.83a1.8,1.8,0,0,1-2.573,0l-5.335-5.43a1.919,1.919,0,0,0-2.73,0,1.993,1.993,0,0,0,0,2.78l8.931,9.09a0.6,0.6,0,0,0,.841,0l18.374-18.7A1.993,1.993,0,0,0,437.405,2738.79Zm-9.892,1.26a14.39,14.39,0,0,0-8.8-2.98A14.932,14.932,0,1,0,433.389,2752c0-.36-0.013-0.72-0.038-1.07a1.016,1.016,0,1,1,2.026-.15c0.028,0.4.042,0.81,0.042,1.22a16.712,16.712,0,1,1-16.709-17,16.331,16.331,0,0,1,10.023,3.4,1.038,1.038,0,0,1,.2,1.44A1,1,0,0,1,427.513,2740.05Z" transform="translate(-402 -2735)"/>
</svg>
