<svg xmlns="http://www.w3.org/2000/svg" width="40" height="40" viewBox="0 0 40 40">
  <defs>
    <style>
      .cls-1 {
        fill: #f1135c;
        fill-rule: evenodd;
      }
    </style>
  </defs>
  <path id="p2.svg" class="cls-1" d="M829.793,2744.44c-0.309.04-.626,0.09-0.946,0.13a8.1,8.1,0,0,1-.642,1.55c0.2,0.26.388,0.51,0.575,0.76a1.432,1.432,0,0,1-.139,1.85l-1.235,1.23a1.411,1.411,0,0,1-1.846.14c-0.252-.18-0.509-0.38-0.763-0.57a8.653,8.653,0,0,1-1.549.64c-0.043.32-.087,0.64-0.134,0.95a1.428,1.428,0,0,1-1.4,1.2h-1.746a1.429,1.429,0,0,1-1.4-1.2c-0.046-.31-0.091-0.63-0.133-0.95a8.653,8.653,0,0,1-1.549-.64c-0.255.19-.511,0.39-0.764,0.57a1.41,1.41,0,0,1-1.845-.14l-1.235-1.23a1.432,1.432,0,0,1-.139-1.85c0.186-.25.379-0.5,0.575-0.76a8.1,8.1,0,0,1-.642-1.55c-0.32-.04-0.637-0.09-0.946-0.13a1.437,1.437,0,0,1-1.207-1.41v-1.74a1.437,1.437,0,0,1,1.207-1.41c0.309-.04.626-0.09,0.946-0.13a8.668,8.668,0,0,1,.642-1.55c-0.2-.25-0.389-0.51-0.575-0.76a1.433,1.433,0,0,1,.139-1.85l1.235-1.23a1.435,1.435,0,0,1,1.846-.14c0.252,0.19.509,0.38,0.764,0.57a8.614,8.614,0,0,1,1.548-.64c0.042-.32.087-0.64,0.134-0.94a1.427,1.427,0,0,1,1.4-1.21h1.746a1.427,1.427,0,0,1,1.4,1.21c0.047,0.3.092,0.62,0.134,0.94a8.653,8.653,0,0,1,1.549.64c0.255-.19.511-0.38,0.764-0.57a1.434,1.434,0,0,1,1.845.14l1.235,1.23a1.433,1.433,0,0,1,.139,1.85c-0.186.25-.379,0.51-0.575,0.76a8.668,8.668,0,0,1,.642,1.55c0.32,0.04.637,0.09,0.946,0.13a1.437,1.437,0,0,1,1.207,1.41v1.74A1.437,1.437,0,0,1,829.793,2744.44Zm-0.494-2.91-0.854-.12a1.4,1.4,0,0,1-1.185-1.02,6.459,6.459,0,0,0-.626-1.51,1.425,1.425,0,0,1,.111-1.57q0.266-.345.521-0.69l-0.891-.89c-0.228.17-.459,0.35-0.687,0.52a1.4,1.4,0,0,1-1.565.11,6.4,6.4,0,0,0-1.51-.62,1.417,1.417,0,0,1-1.027-1.19c-0.038-.28-0.077-0.57-0.118-0.85h-1.26c-0.041.28-.08,0.57-0.118,0.85a1.417,1.417,0,0,1-1.027,1.19,6.387,6.387,0,0,0-1.51.62,1.4,1.4,0,0,1-1.565-.11c-0.229-.17-0.459-0.35-0.688-0.52l-0.89.89c0.169,0.23.344,0.46,0.521,0.69a1.424,1.424,0,0,1,.11,1.57,6.456,6.456,0,0,0-.625,1.51,1.4,1.4,0,0,1-1.185,1.02l-0.854.12v1.26l0.854,0.12a1.413,1.413,0,0,1,1.185,1.03,6.831,6.831,0,0,0,.625,1.51,1.408,1.408,0,0,1-.11,1.56q-0.265.345-.521,0.69l0.89,0.89c0.229-.17.46-0.35,0.688-0.52a1.418,1.418,0,0,1,1.565-.11,6.4,6.4,0,0,0,1.51.62,1.429,1.429,0,0,1,1.027,1.19c0.038,0.29.077,0.57,0.118,0.85h1.26c0.041-.28.08-0.56,0.118-0.85a1.429,1.429,0,0,1,1.027-1.19,6.4,6.4,0,0,0,1.51-.62,1.418,1.418,0,0,1,1.565.11c0.228,0.17.459,0.35,0.687,0.52l0.891-.89c-0.17-.23-0.345-0.46-0.521-0.69a1.408,1.408,0,0,1-.111-1.56,6.787,6.787,0,0,0,.626-1.51,1.412,1.412,0,0,1,1.185-1.03l0.854-.12v-1.26Zm-8.461,4.26a3.625,3.625,0,1,1,3.625-3.63A3.633,3.633,0,0,1,820.838,2745.79Zm0-5.64a2.015,2.015,0,1,0,2.014,2.01A2.014,2.014,0,0,0,820.838,2740.15Zm-9.245,8.35c-0.118.47-.244,0.96-0.374,1.44a11.283,11.283,0,0,1,1.841,1.84c0.483-.13.968-0.26,1.442-0.37a1.681,1.681,0,0,1,1.952.98l0.92,2.22h0a1.684,1.684,0,0,1-.683,2.08c-0.418.25-.85,0.51-1.283,0.76a11.138,11.138,0,0,1,0,2.6c0.432,0.25.864,0.5,1.284,0.76a1.675,1.675,0,0,1,.683,2.07l-0.919,2.22a1.679,1.679,0,0,1-1.953.99c-0.475-.12-0.959-0.24-1.442-0.37a11.356,11.356,0,0,1-1.84,1.84c0.13,0.48.255,0.97,0.373,1.44a1.679,1.679,0,0,1-.987,1.95l-2.22.92a1.684,1.684,0,0,1-2.078-.68c-0.253-.42-0.507-0.85-0.756-1.28a11.322,11.322,0,0,1-2.6,0c-0.252.43-.506,0.86-0.756,1.28a1.7,1.7,0,0,1-1.443.81,1.581,1.581,0,0,1-.636-0.13l-2.22-.92a1.679,1.679,0,0,1-.987-1.95c0.118-.47.244-0.96,0.374-1.44a11.283,11.283,0,0,1-1.841-1.84c-0.483.13-.968,0.25-1.442,0.37a1.677,1.677,0,0,1-1.952-.99l-0.92-2.22a1.675,1.675,0,0,1,.683-2.07c0.419-.26.851-0.51,1.283-0.76a11.138,11.138,0,0,1,0-2.6c-0.433-.25-0.864-0.51-1.284-0.76a1.684,1.684,0,0,1-.683-2.08l0.92-2.22a1.681,1.681,0,0,1,1.952-.98c0.474,0.11.958,0.24,1.443,0.37a11.31,11.31,0,0,1,1.839-1.84c-0.129-.48-0.254-0.97-0.373-1.44a1.7,1.7,0,0,1,.987-1.96l2.22-.91a1.675,1.675,0,0,1,2.079.68c0.251,0.42.5,0.85,0.755,1.28a11.33,11.33,0,0,1,2.6,0c0.249-.43.5-0.86,0.755-1.28a1.675,1.675,0,0,1,2.079-.68l2.22,0.91A1.7,1.7,0,0,1,811.593,2748.5Zm-1.535,2.8a1.657,1.657,0,0,1-.586-1.75c0.124-.47.245-0.93,0.359-1.39l-2.041-.84c-0.241.4-.485,0.81-0.723,1.23a1.674,1.674,0,0,1-1.659.83,8.985,8.985,0,0,0-2.317,0,1.673,1.673,0,0,1-1.657-.83c-0.239-.42-0.483-0.83-0.724-1.23l-2.04.84c0.114,0.46.235,0.92,0.359,1.38a1.668,1.668,0,0,1-.585,1.76,9.592,9.592,0,0,0-1.638,1.64,1.691,1.691,0,0,1-1.76.59c-0.463-.13-0.928-0.25-1.382-0.36l-0.846,2.04c0.4,0.24.818,0.48,1.232,0.72a1.676,1.676,0,0,1,.83,1.66,9.38,9.38,0,0,0,0,2.32,1.677,1.677,0,0,1-.83,1.66c-0.415.23-.829,0.48-1.232,0.72l0.846,2.04c0.455-.11.919-0.24,1.382-0.36a1.655,1.655,0,0,1,1.759.59,9.124,9.124,0,0,0,1.638,1.63,1.679,1.679,0,0,1,.586,1.76c-0.124.47-.245,0.93-0.359,1.39l2.041,0.84c0.24-.4.483-0.81,0.723-1.23a1.673,1.673,0,0,1,1.659-.83,8.985,8.985,0,0,0,2.317,0,1.673,1.673,0,0,1,1.657.83c0.238,0.41.481,0.83,0.723,1.23l2.041-.84c-0.113-.46-0.234-0.92-0.359-1.39a1.658,1.658,0,0,1,.585-1.75,9.592,9.592,0,0,0,1.638-1.64,1.656,1.656,0,0,1,1.76-.59c0.462,0.12.926,0.25,1.383,0.36l0.845-2.04c-0.4-.24-0.819-0.49-1.233-0.72a1.677,1.677,0,0,1-.829-1.66,9.38,9.38,0,0,0,0-2.32,1.677,1.677,0,0,1,.83-1.66c0.415-.24.829-0.48,1.232-0.72l-0.846-2.04c-0.455.11-.92,0.23-1.382,0.36a1.69,1.69,0,0,1-1.759-.59A9.521,9.521,0,0,0,810.058,2751.3Zm-3.472,13.09a6.1,6.1,0,1,1,3.3-7.98h0A6.117,6.117,0,0,1,806.586,2764.39Zm1.648-7.29a4.314,4.314,0,0,0-3.989-2.66,4.158,4.158,0,0,0-1.644.33A4.308,4.308,0,1,0,808.234,2757.1Z" transform="translate(-791 -2732)"/>
</svg>
