<svg xmlns="http://www.w3.org/2000/svg" width="46" height="31" viewBox="0 0 46 31">
  <defs>
    <style>
      .cls-1 {
        fill: #f1135c;
        fill-rule: evenodd;
      }
    </style>
  </defs>
  <path id="p3.svg" class="cls-1" d="M1153.9,2752.95a24.955,24.955,0,0,1-45.81,0,1.17,1.17,0,0,1,0-.9,24.955,24.955,0,0,1,45.81,0A1.17,1.17,0,0,1,1153.9,2752.95Zm-22.9-13.66a14.53,14.53,0,1,0,20.58,13.21A22.554,22.554,0,0,0,1131,2739.29Zm0,21.97a8.76,8.76,0,1,1,8.81-8.76A8.8,8.8,0,0,1,1131,2761.26Zm0-15.23a6.475,6.475,0,1,0,6.51,6.47A6.5,6.5,0,0,0,1131,2746.03Zm0,4.11a2.369,2.369,0,0,0-2.38,2.36,1.155,1.155,0,0,1-2.31,0,4.675,4.675,0,0,1,4.69-4.65A1.145,1.145,0,1,1,1131,2750.14Z" transform="translate(-1108 -2737)"/>
</svg>
