<svg xmlns="http://www.w3.org/2000/svg" width="38.5" height="33.97" viewBox="0 0 38.5 33.97">
  <defs>
    <style>
      .cls-1 {
        fill: #fff;
        fill-rule: evenodd;
      }
    </style>
  </defs>
  <path id="p4.svg" class="cls-1" d="M1519.15,2750.9l-7.96-.74,2.52-2.53-7.92-8a5.445,5.445,0,0,0-7.78,0,5.614,5.614,0,0,0,0,7.86l5.65,5.7-0.02.02,0.48,0.48a8.782,8.782,0,0,1,0,12.39,8.691,8.691,0,0,1-12.33,0l-7.93-7.96-2.45,2.45-0.74-8,7.96,0.75-2.58,2.59,7.75,7.79a5.54,5.54,0,0,0,7.82-7.85l-5.67-5.7,0.04-.03-0.47-.47a8.843,8.843,0,0,1,0-12.41,8.614,8.614,0,0,1,12.28,0l8.1,8.18,2.51-2.51Z" transform="translate(-1480.66 -2734.69)"/>
</svg>
