<svg xmlns="http://www.w3.org/2000/svg" width="41" height="41" viewBox="0 0 41 41">
  <defs>
    <style>
      .cls-1 {
        fill: #f1135c;
        fill-rule: evenodd;
      }
    </style>
  </defs>
  <path id="p5.svg" class="cls-1" d="M641.2,2922.39a0.8,0.8,0,0,1-.566-0.24,0.8,0.8,0,0,1,0-1.13,0.8,0.8,0,0,1,1.367.57,0.8,0.8,0,0,1-.235.56A0.808,0.808,0,0,1,641.2,2922.39ZM640.088,2936h-2.9a1.915,1.915,0,0,1-1.912-1.91v-23.92a0.769,0.769,0,0,1,.07-0.32l2.562-5.73a0.8,0.8,0,0,1,1.463,0l2.562,5.73a0.769,0.769,0,0,1,.07.32v8.2a0.8,0.8,0,0,1-1.6,0v-7.39h-3.524v19.7H640.4v-5.6a0.8,0.8,0,0,1,1.6,0v9.01A1.915,1.915,0,0,1,640.088,2936Zm-0.125-26.63-1.327-2.96-1.327,2.96h2.654Zm0.435,22.91h-3.524v1.81a0.312,0.312,0,0,0,.311.31h2.9a0.311,0.311,0,0,0,.31-0.31v-1.81Zm-29.976.2a3.365,3.365,0,1,1,3.364-3.37A3.369,3.369,0,0,1,610.422,2932.48Zm0-5.13a1.76,1.76,0,1,0,1.762,1.76A1.763,1.763,0,0,0,610.422,2927.35Zm0-14.09a3.365,3.365,0,1,1,3.364-3.37A3.369,3.369,0,0,1,610.422,2913.26Zm0-5.13a1.765,1.765,0,1,0,1.762,1.76A1.763,1.763,0,0,0,610.422,2908.13Zm0,14.74a3.365,3.365,0,1,1,3.364-3.37A3.369,3.369,0,0,1,610.422,2922.87Zm0-5.13a1.76,1.76,0,1,0,1.762,1.76A1.763,1.763,0,0,0,610.422,2917.74Zm16.069,14.74h-9.182a0.805,0.805,0,0,1,0-1.61h9.182A0.805,0.805,0,0,1,626.491,2932.48Zm0-3.85h-9.182a0.8,0.8,0,1,1,0-1.6h9.182A0.8,0.8,0,1,1,626.491,2928.63Zm0-5.76h-9.182a0.805,0.805,0,0,1,0-1.61h9.182A0.805,0.805,0,0,1,626.491,2922.87Zm0-3.85h-9.182a0.8,0.8,0,1,1,0-1.6h9.182A0.8,0.8,0,1,1,626.491,2919.02Zm-9.182-9.61a0.8,0.8,0,1,1,0-1.6h9.182a0.8,0.8,0,1,1,0,1.6h-9.182Zm9.182,3.85h-9.182a0.8,0.8,0,1,1,0-1.6h9.182A0.8,0.8,0,1,1,626.491,2913.26Zm6.059-2.28a0.809,0.809,0,0,1-.8-0.81,0.8,0.8,0,0,1,.234-0.56,0.789,0.789,0,0,1,1.133,0,0.8,0.8,0,0,1,0,1.13A0.809,0.809,0,0,1,632.55,2910.98Zm-3.2,25.02H605a4.01,4.01,0,0,1-4-4v-28.67c0-2.01,1.5-3.21,4-3.21h4.324v-0.2a2.323,2.323,0,0,1,2.321-2.32h1.484a4.33,4.33,0,0,1,3.965-2.6h0.155a4.33,4.33,0,0,1,3.965,2.6H622.7a2.322,2.322,0,0,1,2.32,2.32v0.2h4.324a4.012,4.012,0,0,1,4,4.01v2.69a0.8,0.8,0,1,1-1.6,0v-2.69a2.4,2.4,0,0,0-2.4-2.4h-4.324v1.12a0.8,0.8,0,0,1-.8.8H610.129a0.8,0.8,0,0,1-.8-0.8v-1.12H605c-2.4,0-2.4,1.2-2.4,1.6V2932a2.406,2.406,0,0,0,2.4,2.4h24.343a2.406,2.406,0,0,0,2.4-2.4v-18.13a0.8,0.8,0,0,1,1.6,0V2932A4.01,4.01,0,0,1,629.347,2936Zm-18.418-33.95h12.493v-2.13a0.719,0.719,0,0,0-.719-0.72h-2.05a0.8,0.8,0,0,1-.773-0.59,2.731,2.731,0,0,0-2.627-2.01H617.1a2.73,2.73,0,0,0-2.626,2.01,0.8,0.8,0,0,1-.773.59h-2.05a0.719,0.719,0,0,0-.72.72v2.13Z" transform="translate(-601 -2895)"/>
</svg>
