<svg xmlns="http://www.w3.org/2000/svg" width="34.031" height="34" viewBox="0 0 34.031 34">
  <defs>
    <style>
      .cls-1 {
        fill: #f1135c;
        fill-rule: evenodd;
      }
    </style>
  </defs>
  <path id="p6.svg" class="cls-1" d="M975.248,2909.2c-1.72,1.72-15.831,15.82-17.17,17.16h0a1.236,1.236,0,0,1-.275.2l-9.382,4.45h19.519a1,1,0,1,1,0,1.99H944a1,1,0,0,1-.9-1.42l6.332-13.39a0.9,0.9,0,0,1,.2-0.28h0c1.105-1.11,16.778-16.77,17.171-17.16A5.976,5.976,0,1,1,975.248,2909.2Zm-29.158,20.71,3.847-1.83-2.025-2.03Zm2.726-5.77,3.032,3.03,3.822-1.81-5.045-5.04Zm2.922-5.53,5.635,5.64,8.717-8.71-2.112-2.12-3.788,3.78a1,1,0,0,1-1.409-1.41l3.788-3.77-2.114-2.12Zm10.126-10.12,5.635,5.64,2.114-2.11-5.635-5.64Zm11.976-6.34a4,4,0,0,0-5.636,0l-2.817,2.82,5.635,5.64,2.818-2.82A3.99,3.99,0,0,0,973.84,2902.15Zm-17.876,17.87a1,1,0,1,1,1.409,0A1,1,0,0,1,955.964,2920.02Zm15.957,10.99h1.984a1,1,0,1,1,0,1.99h-1.984A1,1,0,1,1,971.921,2931.01Z" transform="translate(-943 -2899)"/>
</svg>
