<svg xmlns="http://www.w3.org/2000/svg" width="38" height="41" viewBox="0 0 38 41">
  <defs>
    <style>
      .cls-1 {
        fill: #f1135c;
        fill-rule: evenodd;
      }
    </style>
  </defs>
  <path id="p7.svg" class="cls-1" d="M1304.57,2902.12a0.933,0.933,0,0,1,.65-0.27,0.909,0.909,0,0,1,.64.27,0.886,0.886,0,0,1,.27.63,0.909,0.909,0,0,1-.27.64,0.9,0.9,0,0,1-.64.26,0.923,0.923,0,0,1-.65-0.26,0.9,0.9,0,0,1-.26-0.64A0.877,0.877,0,0,1,1304.57,2902.12Zm8.58,1.53h-4.53a0.9,0.9,0,1,1,0-1.8h4.53A0.9,0.9,0,1,1,1313.15,2903.65Zm0,4.67h-7.93a0.9,0.9,0,1,1,0-1.79h7.93A0.9,0.9,0,1,1,1313.15,2908.32Zm-18.57,22.93a0.969,0.969,0,0,1-.65-0.26,0.9,0.9,0,0,1-.26-0.64,0.86,0.86,0,0,1,.26-0.63,0.933,0.933,0,0,1,.65-0.27,0.909,0.909,0,0,1,.64.27,0.869,0.869,0,0,1,.27.63,0.909,0.909,0,0,1-.27.64A0.944,0.944,0,0,1,1294.58,2931.25Zm5.03-4.57h-7.92a0.9,0.9,0,1,1,0-1.79h7.92A0.9,0.9,0,1,1,1299.61,2926.68Zm-3.12-24.93a5.621,5.621,0,1,1-5.7,5.62A5.67,5.67,0,0,1,1296.49,2901.75Zm0,9.45a3.825,3.825,0,1,0-3.88-3.83A3.86,3.86,0,0,0,1296.49,2911.2Zm-4.8,9.01h7.92a0.9,0.9,0,1,1,0,1.8h-7.92A0.9,0.9,0,1,1,1291.69,2920.21Zm0-4.67h7.92a0.9,0.9,0,1,1,0,1.8h-7.92A0.9,0.9,0,1,1,1291.69,2915.54Zm27.31,6.91a0.863,0.863,0,0,1-.27.63l-8.02,7.91a0.9,0.9,0,0,1-.64.26h-11.66a0.9,0.9,0,1,1,0-1.8h10.75v-2.77h-4.94a0.907,0.907,0,0,1-.92-0.9v-14.01a0.907,0.907,0,0,1,.92-0.9h8.93a0.9,0.9,0,0,1,.91.9v9.78h3.12v-22.86a0.9,0.9,0,0,0-.91-0.89h-27.7a0.905,0.905,0,0,0-.92.89v29.86a0.907,0.907,0,0,0,.92.9h1.67a0.9,0.9,0,1,1,0,1.8h-1.67a2.723,2.723,0,0,1-2.74-2.7v-25h-2.1a0.9,0.9,0,0,0-.91.89v29.86a0.9,0.9,0,0,0,.91.9h26.7a0.907,0.907,0,0,0,.92-0.9v-2.74a0.91,0.91,0,0,1,1.82,0v2.74a2.723,2.723,0,0,1-2.74,2.7h-26.7a2.721,2.721,0,0,1-2.73-2.7v-29.86a2.719,2.719,0,0,1,2.73-2.69h2.1v-3.06a2.721,2.721,0,0,1,2.74-2.69h27.7a2.719,2.719,0,0,1,2.73,2.69v23.76h0Zm-6.77-9.78h-7.1v12.22h4.03a3.4,3.4,0,0,1,3.07-3.33v-8.89Zm0.35,10.67a1.594,1.594,0,0,0-1.6,1.58v3.26l4.91-4.84h-3.31Z" transform="translate(-1281 -2896)"/>
</svg>
