<svg xmlns="http://www.w3.org/2000/svg" width="54" height="15" viewBox="0 0 54 15">
  <defs>
    <style>
      .cls-1 {
        fill: #c4c4c4;
        fill-rule: evenodd;
      }
    </style>
  </defs>
  <path id="pnext.svg" class="cls-1" d="M1544.71,4589.62a0.053,0.053,0,0,0,.02.03,1.415,1.415,0,0,1,.21.47,0.936,0.936,0,0,1,.04.16,1.821,1.821,0,0,1,.01.33,1.359,1.359,0,0,1-.07.35c-0.01.03-.02,0.07-0.03,0.11a1.469,1.469,0,0,1-.38.53l-5.94,5.95a1.5,1.5,0,0,1-2.12-2.12l3.44-3.43H1492.5a1.5,1.5,0,0,1,0-3h47.39l-3.47-3.47a1.5,1.5,0,0,1,2.12-2.11l5.81,5.81a2.11,2.11,0,0,1,.23.19C1544.63,4589.48,1544.66,4589.55,1544.71,4589.62Z" transform="translate(-1491 -4583)"/>
</svg>
