<svg xmlns="http://www.w3.org/2000/svg" width="53.969" height="15" viewBox="0 0 53.969 15">
  <defs>
    <style>
      .cls-1 {
        fill: #c4c4c4;
        fill-rule: evenodd;
      }
    </style>
  </defs>
  <path id="pprev.svg" class="cls-1" d="M427.5,4592H380.14l3.431,3.43a1.5,1.5,0,0,1-2.111,2.12l-5.938-5.95a1.557,1.557,0,0,1-.378-0.53c-0.016-.04-0.022-0.08-0.035-0.11a1.548,1.548,0,0,1-.066-0.35,1.4,1.4,0,0,1,.012-0.33,1.5,1.5,0,0,1,.031-0.16,1.451,1.451,0,0,1,.216-0.47l0.022-.03a1.226,1.226,0,0,1,.13-0.2,2.1,2.1,0,0,1,.229-0.19l5.808-5.81a1.492,1.492,0,0,1,2.111,2.11l-3.463,3.47H427.5A1.5,1.5,0,0,1,427.5,4592Z" transform="translate(-375.031 -4583)"/>
</svg>
