<svg xmlns="http://www.w3.org/2000/svg" width="271" height="271" viewBox="0 0 271 271">
  <defs>
    <style>
      .cls-1 {
        fill: #fff;
        fill-rule: evenodd;
      }
    </style>
  </defs>
  <path id="serpen.svg" class="cls-1" d="M1422.41,615.585a49.77,49.77,0,0,0-70.38-.021L1202.37,764.37a8.4,8.4,0,0,0-1.99,3.11l-33.87,93.157A8.464,8.464,0,0,0,1174.47,872a8.279,8.279,0,0,0,2.48-.372l84.26-25.845a8.4,8.4,0,0,0,3.5-2.1l157.7-157.7A49.758,49.758,0,0,0,1422.41,615.585ZM1251.47,831.054l-31.53,9.684a36.172,36.172,0,0,0-8.61-14.076,45.554,45.554,0,0,0-11.48-8.138l14.42-39.68h19.48v16.937a8.459,8.459,0,0,0,8.47,8.469h14.95Zm124.66-122.747L1272.95,811.5l2.97-13.952a8.5,8.5,0,0,0-8.3-10.231h-16.93V770.375a8.477,8.477,0,0,0-8.47-8.469h-13.36l100.73-100.144,0.09,0.094A32.845,32.845,0,1,1,1376.13,708.307Zm34.31-34.3-7.91,7.9a49.544,49.544,0,0,0-46.5-46.454l7.94-7.881,0.02-.022A32.847,32.847,0,0,1,1410.44,674.01Zm-55.65-2.779-84.68,84.688a8.466,8.466,0,1,0,11.97,11.975l84.69-84.688A8.469,8.469,0,1,0,1354.79,671.231Z" transform="translate(-1166 -601)"/>
</svg>
